<?xml version="1.0" encoding="UTF-8"?><svg id="Layer_1" xmlns="http://www.w3.org/2000/svg" viewBox="0 0 1177.93 250.03"><defs><style>.cls-1{fill:#fff;}.cls-1,.cls-2{stroke-width:0px;}.cls-2{fill:#e40418;}</style></defs><rect class="cls-2" width="250.03" height="250.03"/><path class="cls-2" d="m319.16,50.61v59.62h-13.32V38.44h22.68l21.96,58.79,22.16-58.79h21.96v71.8h-14.46v-59.94l-22.68,59.94h-15.71l-22.58-59.62Z"/><path class="cls-2" d="m404.38,50.3v-11.86h73.26v11.86h-29.34v59.94h-14.57v-59.94h-29.34Z"/><path class="cls-2" d="m480.34,74.44c0-6.8.88-12.57,2.65-17.33,1.77-4.75,4.35-8.6,7.75-11.55,3.4-2.95,7.56-5.08,12.49-6.4,4.92-1.32,10.58-1.98,16.96-1.98,11.45,0,20.36,1.89,26.74,5.67,6.38,3.78,10.09,10.08,11.13,18.89h-14.67c-.97-5.13-3.37-8.62-7.18-10.46-3.82-1.84-9.16-2.76-16.02-2.76-3.82,0-7.28.35-10.41,1.04-3.12.69-5.78,1.89-7.96,3.59-2.19,1.7-3.87,3.97-5.05,6.82-1.18,2.85-1.77,6.38-1.77,10.61v7.28c0,4.16.59,7.67,1.77,10.51,1.18,2.85,2.86,5.13,5.05,6.87,2.19,1.73,4.82,2.98,7.91,3.75,3.09.76,6.57,1.14,10.46,1.14,3.33,0,6.3-.17,8.9-.52,2.6-.35,4.87-.99,6.82-1.93,1.94-.94,3.54-2.2,4.79-3.8,1.25-1.6,2.19-3.64,2.81-6.14h14.67c-1.32,8.46-5.15,14.53-11.5,18.21-6.35,3.68-15.18,5.51-26.48,5.51-6.38,0-12.04-.64-16.96-1.92-4.93-1.28-9.09-3.38-12.49-6.3-3.4-2.91-5.98-6.73-7.75-11.45-1.77-4.72-2.65-10.51-2.65-17.38Z"/><path class="cls-2" d="m316.66,190.49c.48,2.31,1.28,4.2,2.39,5.67,1.11,1.47,2.57,2.63,4.37,3.46,1.8.84,4.01,1.44,6.61,1.79,2.6.35,5.67.53,9.21.53,7.28,0,12.59-.84,15.92-2.51,3.33-1.67,5-4.39,5-8.16,0-2.51-.82-4.43-2.45-5.75-1.63-1.32-3.78-2.33-6.45-3.03-2.67-.7-5.72-1.18-9.16-1.46-3.43-.28-6.92-.58-10.46-.89-3.54-.31-7.02-.8-10.46-1.46s-6.49-1.72-9.16-3.17c-2.67-1.46-4.82-3.42-6.45-5.88-1.63-2.46-2.45-5.71-2.45-9.73,0-7.56,3.03-13.04,9.1-16.44,6.07-3.4,14.65-5.1,25.75-5.1s19.49,1.63,25.39,4.89c5.9,3.26,9.23,8.67,9.99,16.23h-14.88c-.28-2.03-.95-3.71-2.03-5.04-1.08-1.33-2.48-2.4-4.21-3.2-1.74-.81-3.8-1.37-6.19-1.68-2.39-.32-5.08-.47-8.06-.47-6.94,0-12.11.75-15.5,2.25-3.4,1.5-5.1,4.23-5.1,8.21,0,2.37.81,4.19,2.45,5.44,1.63,1.26,3.78,2.21,6.45,2.88,2.67.66,5.72,1.13,9.16,1.41,3.43.28,6.94.57,10.51.89,3.57.31,7.08.82,10.51,1.51,3.43.69,6.49,1.75,9.16,3.17,2.67,1.42,4.82,3.38,6.45,5.88,1.63,2.5,2.45,5.72,2.45,9.68,0,7.84-2.84,13.51-8.53,17.01-5.69,3.5-14.6,5.25-26.74,5.25-6.17,0-11.5-.42-15.97-1.25s-8.22-2.13-11.24-3.9c-3.02-1.77-5.36-4.06-7.02-6.87s-2.74-6.19-3.23-10.15h14.88Z"/><path class="cls-2" d="m400.32,151.78v59.62h-13.32v-71.8h22.68l21.96,58.79,22.16-58.79h21.96v71.8h-14.46v-59.94l-22.68,59.94h-15.71l-22.58-59.62Z"/><path class="cls-2" d="m536.12,139.61l31.63,71.8h-15.19l-8.01-18.42h-38.4l-8.01,18.42h-13.74l31.74-71.8h19.98Zm-25.29,42.66h29.03l-14.57-33.19-14.46,33.19Z"/><path class="cls-2" d="m621.44,139.61c8.05,0,14.17,1.93,18.37,5.78s6.3,9.35,6.3,16.49c0,5.69-1.27,10.32-3.8,13.89-2.53,3.57-6.26,6.05-11.19,7.44l17.59,28.2h-16.23l-16.75-26.95h-24.77v26.95h-14.57v-71.8h45.06Zm9.99,21.12c0-3.12-.9-5.6-2.71-7.44-1.8-1.84-4.89-2.76-9.26-2.76h-28.51v22.89h28.51c4.3,0,7.37-.92,9.21-2.76,1.84-1.84,2.76-4.28,2.76-7.34v-2.6Z"/><path class="cls-2" d="m651.93,151.47v-11.86h73.26v11.86h-29.34v59.94h-14.57v-59.94h-29.34Z"/><path class="cls-2" d="m753.28,175.19c0-6.8.92-12.54,2.76-17.22,1.84-4.68,4.54-8.48,8.12-11.39,3.57-2.91,8.01-5.01,13.32-6.3,5.31-1.28,11.43-1.93,18.37-1.93s13.06.64,18.37,1.93c5.31,1.28,9.75,3.38,13.32,6.3,3.57,2.91,6.28,6.71,8.12,11.39,1.84,4.68,2.76,10.42,2.76,17.22s-.92,12.78-2.76,17.53c-1.84,4.75-4.54,8.6-8.12,11.55-3.57,2.95-8.01,5.08-13.32,6.4-5.31,1.32-11.43,1.98-18.37,1.98s-13.06-.66-18.37-1.98c-5.31-1.32-9.75-3.45-13.32-6.4-3.57-2.95-6.28-6.8-8.12-11.55-1.84-4.75-2.76-10.6-2.76-17.53Zm70.45-3.54c0-7.91-2.34-13.54-7.02-16.91-4.68-3.36-11.64-5.05-20.86-5.05s-16.27,1.68-20.92,5.05c-4.65,3.37-6.97,9-6.97,16.91v7.39c0,4.02.57,7.44,1.72,10.25s2.88,5.1,5.2,6.87c2.32,1.77,5.24,3.07,8.74,3.9,3.5.83,7.58,1.25,12.23,1.25,9.23,0,16.18-1.7,20.86-5.1,4.68-3.4,7.02-9.12,7.02-17.17v-7.39Z"/><path class="cls-2" d="m911.86,139.61v11.86h-45.99v19.04h37.56v11.65h-37.56v29.24h-14.57v-71.8h60.56Z"/><path class="cls-2" d="m983.56,139.61v11.86h-45.99v19.04h37.56v11.65h-37.56v29.24h-14.57v-71.8h60.56Z"/><path class="cls-2" d="m1009.26,139.61v71.8h-14.57v-71.8h14.57Z"/><path class="cls-2" d="m1022.06,175.61c0-6.8.88-12.57,2.65-17.33,1.77-4.75,4.35-8.6,7.75-11.55,3.4-2.95,7.56-5.08,12.49-6.4,4.92-1.32,10.58-1.98,16.96-1.98,11.45,0,20.36,1.89,26.74,5.67,6.38,3.78,10.09,10.08,11.13,18.89h-14.67c-.97-5.13-3.37-8.62-7.18-10.46-3.82-1.84-9.16-2.76-16.02-2.76-3.82,0-7.28.35-10.41,1.04-3.12.69-5.78,1.89-7.96,3.59-2.19,1.7-3.87,3.97-5.05,6.82-1.18,2.85-1.77,6.38-1.77,10.61v7.28c0,4.16.59,7.67,1.77,10.51,1.18,2.85,2.86,5.13,5.05,6.87,2.19,1.74,4.82,2.98,7.91,3.75,3.09.76,6.57,1.14,10.46,1.14,3.33,0,6.3-.17,8.9-.52,2.6-.35,4.87-.99,6.82-1.92,1.94-.94,3.54-2.2,4.79-3.8,1.25-1.59,2.19-3.64,2.81-6.14h14.67c-1.32,8.46-5.15,14.53-11.5,18.21-6.35,3.68-15.18,5.52-26.48,5.52-6.38,0-12.04-.64-16.96-1.93-4.93-1.28-9.09-3.38-12.49-6.29-3.4-2.91-5.98-6.73-7.75-11.45-1.77-4.72-2.65-10.51-2.65-17.38Z"/><path class="cls-2" d="m1173.15,139.61v11.34h-47.03v18.31h36.21v10.93h-36.21v19.88h47.45v11.34h-62.02v-71.8h61.6Z"/><polygon class="cls-1" points="187 31.22 215.29 31.22 201.15 50.67 187 70.11 172.85 50.67 158.71 31.22 187 31.22"/><polygon class="cls-1" points="187 70.11 219.14 148.56 187 183.59 187 126.85 187 70.11 187 126.85 187 183.59 154.86 148.56 187 70.11"/></svg>